<svg id="Layer_1" height="512" viewBox="0 0 512 512" width="512" xmlns="http://www.w3.org/2000/svg" data-name="Layer 1"><path d="m490.38 168.77-468.84 182.05v89.13l468.92-183.27v-87.89z" fill="#f73157"/><path d="m21.54 439.95v61.05l468.92-177.12v-67.2z" fill="#ff5c83"/><path d="m81.54 417.245-60 22.705v61.05l60-23.109z" fill="#f73157"/><path d="m81.54 327.419-60 23.401v89.13l60-23.635z" fill="#d80945"/><path d="m489.56 165.96-239.33-100.15-228.69 285.01 321.32-123.72.08-.03a13.721 13.721 0 0 1 11.16.94 15.24 15.24 0 0 1 7.71 13.18v71.29a13.55 13.55 0 1 0 27.1 0v-25.22a14.118 14.118 0 0 1 28.11-1.88c.09.61.16 65.67.22 66.16a13.546 13.546 0 0 0 27.01-1.5v-144.76a25.094 25.094 0 0 1 16.08-23.42l28.07-10.81a3.1 3.1 0 0 0 1.16-5.09z" fill="#ff9cb8"/><path d="m279 79-28.77-13.19-228.69 285.01 57.883-22.287z" fill="#ffbbd2"/><path d="m286.32 82.76.03-.03a54.714 54.714 0 0 1 6.85-6.43 76.009 76.009 0 0 1 6.4-4.55 67.148 67.148 0 0 1 33.8-10.78c20.39-.72 40.37 8.52 52.56 28.31.48.78.94 1.56 1.38 2.36a54.933 54.933 0 0 1 6.91 33.35c-.14 1.3-.34 2.58-.57 3.86-4.05 21.96-20.48 38.09-43.23 43.84a71.768 71.768 0 0 1 -28.64 1.09l-2.83-.45c-43.32-6.76-60.48-59.64-32.66-90.57z" fill="#ff003d"/><path d="m341.81 173.78-2.83-.45c-43.32-6.76-60.48-59.64-32.66-90.57l.03-.03a54.714 54.714 0 0 1 6.85-6.43 76.009 76.009 0 0 1 6.4-4.55 68.1 68.1 0 0 1 25.946-10 61.169 61.169 0 0 0 -12.146-.78 67.148 67.148 0 0 0 -33.8 10.78 76.009 76.009 0 0 0 -6.4 4.55 54.714 54.714 0 0 0 -6.85 6.43l-.03.03c-27.82 30.93-10.66 83.81 32.66 90.57l2.83.45a74.224 74.224 0 0 0 21.833.243c-.611-.081-1.224-.148-1.833-.243z" fill="#d80945"/><circle cx="352" cy="108" fill="#ffcade" r="21"/><path d="m338.985 75a5.985 5.985 0 0 1 -4.645-2.2 40.526 40.526 0 0 1 -8.991-31.274c1.679-13.832 10.074-28.243 21.385-36.714a6 6 0 0 1 7.194 9.606c-7.228 5.412-15.184 16.34-16.667 28.555a28.422 28.422 0 0 0 6.362 22.227 6 6 0 0 1 -4.638 9.8z" fill="#c2684f"/><path d="m293.555 128.045a6 6 0 0 1 -5.593-3.827c-6.883-17.7 3.508-32.144 9.964-37.309a6 6 0 0 1 7.522 9.35c-.526.433-11.661 9.829-6.3 23.611a6 6 0 0 1 -5.591 8.175z" fill="#f4f8fc"/><g fill="#e288a6"><path d="m301.674 220.407a7.015 7.015 0 1 1 7.014-7.015 7.023 7.023 0 0 1 -7.014 7.015z"/><path d="m404.187 194.017a7.015 7.015 0 1 1 7.013-7.017 7.022 7.022 0 0 1 -7.013 7.017z"/><path d="m411.292 228.526a7.015 7.015 0 1 1 7.015-7.014 7.024 7.024 0 0 1 -7.015 7.014z"/><path d="m381.857 264.051a7.015 7.015 0 1 1 7.015-7.015 7.023 7.023 0 0 1 -7.015 7.015z"/><path d="m379.827 222.437a7.015 7.015 0 1 1 7.015-7.015 7.023 7.023 0 0 1 -7.015 7.015z"/><path d="m346.333 199.092a7.015 7.015 0 1 1 7.015-7.015 7.023 7.023 0 0 1 -7.015 7.015z"/><path d="m420.427 167.628a7.015 7.015 0 1 1 7.014-7.015 7.024 7.024 0 0 1 -7.014 7.015z"/><path d="m219.461 207.212a7.015 7.015 0 1 1 7.015-7.015 7.023 7.023 0 0 1 -7.015 7.015z"/><path d="m265.135 185.9a7.015 7.015 0 1 1 7.014-7.015 7.023 7.023 0 0 1 -7.014 7.015z"/><path d="m172.771 229.542a7.015 7.015 0 1 1 7.016-7.016 7.022 7.022 0 0 1 -7.016 7.016z"/><path d="m135.218 269.125a7.015 7.015 0 1 1 7.014-7.014 7.022 7.022 0 0 1 -7.014 7.014z"/><path d="m214.386 248.826a7.015 7.015 0 1 1 7.015-7.015 7.023 7.023 0 0 1 -7.015 7.015z"/><path d="m231.641 146.313a7.015 7.015 0 1 1 7.014-7.015 7.022 7.022 0 0 1 -7.014 7.015z"/></g></svg>